<mxfile host="65bd71144e" pages="3" scale="1.5" border="30">
    <diagram id="AkeDgYMl-CQd4yx3VcR2" name="ListRenderer">
        <mxGraphModel dx="1774" dy="648" grid="1" gridSize="10" guides="1" tooltips="1" connect="1" arrows="1" fold="1" page="1" pageScale="1" pageWidth="850" pageHeight="1100" math="0" shadow="0">
            <root>
                <mxCell id="tH8uWHNspZ0iLHd8SQDv-0"/>
                <mxCell id="tH8uWHNspZ0iLHd8SQDv-1" parent="tH8uWHNspZ0iLHd8SQDv-0"/>
                <mxCell id="rdD7uu43PLueD0Vt0H9s-0" value="Fake code" style="rounded=1;whiteSpace=wrap;html=1;" parent="tH8uWHNspZ0iLHd8SQDv-1" vertex="1">
                    <mxGeometry x="-620" y="280" width="70" height="30" as="geometry"/>
                </mxCell>
                <mxCell id="rdD7uu43PLueD0Vt0H9s-5" value="Assertion 1" style="rounded=0;whiteSpace=wrap;html=1;" parent="tH8uWHNspZ0iLHd8SQDv-1" vertex="1">
                    <mxGeometry x="-625" y="380" width="80" height="30" as="geometry"/>
                </mxCell>
                <mxCell id="rdD7uu43PLueD0Vt0H9s-6" value="Fake code" style="rounded=1;whiteSpace=wrap;html=1;" parent="tH8uWHNspZ0iLHd8SQDv-1" vertex="1">
                    <mxGeometry x="-460" y="280" width="75" height="30" as="geometry"/>
                </mxCell>
                <mxCell id="rdD7uu43PLueD0Vt0H9s-8" value="Assertion 1" style="rounded=0;whiteSpace=wrap;html=1;" parent="tH8uWHNspZ0iLHd8SQDv-1" vertex="1">
                    <mxGeometry x="-510" y="380" width="80" height="30" as="geometry"/>
                </mxCell>
                <mxCell id="rdD7uu43PLueD0Vt0H9s-9" value="&lt;font color=&quot;#336600&quot;&gt;Pass&lt;/font&gt;" style="text;html=1;align=center;verticalAlign=middle;whiteSpace=wrap;rounded=0;fontStyle=0" parent="tH8uWHNspZ0iLHd8SQDv-1" vertex="1">
                    <mxGeometry x="-604" y="420" width="60" height="30" as="geometry"/>
                </mxCell>
                <mxCell id="rdD7uu43PLueD0Vt0H9s-10" value="Fail" style="text;html=1;align=center;verticalAlign=middle;whiteSpace=wrap;rounded=0;fontColor=#660000;fontStyle=0" parent="tH8uWHNspZ0iLHd8SQDv-1" vertex="1">
                    <mxGeometry x="-443" y="420" width="60" height="30" as="geometry"/>
                </mxCell>
                <mxCell id="rdD7uu43PLueD0Vt0H9s-11" value="Assertion 2" style="rounded=0;whiteSpace=wrap;html=1;" parent="tH8uWHNspZ0iLHd8SQDv-1" vertex="1">
                    <mxGeometry x="-410" y="380" width="80" height="30" as="geometry"/>
                </mxCell>
                <mxCell id="rdD7uu43PLueD0Vt0H9s-12" value="" style="endArrow=oval;dashed=1;html=1;dashPattern=1 3;strokeWidth=2;startArrow=oval;startFill=0;endFill=0;exitX=0.5;exitY=0;exitDx=0;exitDy=0;entryX=0.75;entryY=1;entryDx=0;entryDy=0;" parent="tH8uWHNspZ0iLHd8SQDv-1" source="rdD7uu43PLueD0Vt0H9s-11" target="rdD7uu43PLueD0Vt0H9s-6" edge="1">
                    <mxGeometry width="50" height="50" relative="1" as="geometry">
                        <mxPoint x="-455" y="390" as="sourcePoint"/>
                        <mxPoint x="-420" y="310" as="targetPoint"/>
                    </mxGeometry>
                </mxCell>
                <mxCell id="rdD7uu43PLueD0Vt0H9s-13" value="" style="endArrow=oval;dashed=1;html=1;dashPattern=1 3;strokeWidth=2;startArrow=oval;startFill=0;endFill=0;exitX=0.5;exitY=0;exitDx=0;exitDy=0;entryX=0.25;entryY=1;entryDx=0;entryDy=0;" parent="tH8uWHNspZ0iLHd8SQDv-1" source="rdD7uu43PLueD0Vt0H9s-8" target="rdD7uu43PLueD0Vt0H9s-6" edge="1">
                    <mxGeometry width="50" height="50" relative="1" as="geometry">
                        <mxPoint x="-360" y="390" as="sourcePoint"/>
                        <mxPoint x="-410" y="320" as="targetPoint"/>
                    </mxGeometry>
                </mxCell>
                <mxCell id="rdD7uu43PLueD0Vt0H9s-14" value="" style="endArrow=oval;dashed=1;html=1;dashPattern=1 3;strokeWidth=2;startArrow=oval;startFill=0;endFill=0;exitX=0.5;exitY=0;exitDx=0;exitDy=0;entryX=0.5;entryY=1;entryDx=0;entryDy=0;" parent="tH8uWHNspZ0iLHd8SQDv-1" source="rdD7uu43PLueD0Vt0H9s-5" target="rdD7uu43PLueD0Vt0H9s-0" edge="1">
                    <mxGeometry width="50" height="50" relative="1" as="geometry">
                        <mxPoint x="-460" y="390" as="sourcePoint"/>
                        <mxPoint x="-431.25" y="320" as="targetPoint"/>
                    </mxGeometry>
                </mxCell>
                <mxCell id="rdD7uu43PLueD0Vt0H9s-15" value="" style="shape=flexArrow;endArrow=classic;html=1;fontColor=#660000;" parent="tH8uWHNspZ0iLHd8SQDv-1" edge="1">
                    <mxGeometry width="50" height="50" relative="1" as="geometry">
                        <mxPoint x="-547" y="340" as="sourcePoint"/>
                        <mxPoint x="-507" y="340" as="targetPoint"/>
                    </mxGeometry>
                </mxCell>
                <mxCell id="rdD7uu43PLueD0Vt0H9s-16" value="Generic code" style="rounded=1;whiteSpace=wrap;html=1;" parent="tH8uWHNspZ0iLHd8SQDv-1" vertex="1">
                    <mxGeometry x="-246" y="280" width="75" height="30" as="geometry"/>
                </mxCell>
                <mxCell id="rdD7uu43PLueD0Vt0H9s-17" value="Assertion 1" style="rounded=0;whiteSpace=wrap;html=1;" parent="tH8uWHNspZ0iLHd8SQDv-1" vertex="1">
                    <mxGeometry x="-296" y="380" width="80" height="30" as="geometry"/>
                </mxCell>
                <mxCell id="rdD7uu43PLueD0Vt0H9s-18" value="Assertion 2" style="rounded=0;whiteSpace=wrap;html=1;" parent="tH8uWHNspZ0iLHd8SQDv-1" vertex="1">
                    <mxGeometry x="-196" y="380" width="80" height="30" as="geometry"/>
                </mxCell>
                <mxCell id="rdD7uu43PLueD0Vt0H9s-19" value="" style="endArrow=oval;dashed=1;html=1;dashPattern=1 3;strokeWidth=2;startArrow=oval;startFill=0;endFill=0;exitX=0.5;exitY=0;exitDx=0;exitDy=0;entryX=0.75;entryY=1;entryDx=0;entryDy=0;" parent="tH8uWHNspZ0iLHd8SQDv-1" source="rdD7uu43PLueD0Vt0H9s-18" target="rdD7uu43PLueD0Vt0H9s-16" edge="1">
                    <mxGeometry width="50" height="50" relative="1" as="geometry">
                        <mxPoint x="-241" y="390" as="sourcePoint"/>
                        <mxPoint x="-206" y="310" as="targetPoint"/>
                    </mxGeometry>
                </mxCell>
                <mxCell id="rdD7uu43PLueD0Vt0H9s-20" value="" style="endArrow=oval;dashed=1;html=1;dashPattern=1 3;strokeWidth=2;startArrow=oval;startFill=0;endFill=0;exitX=0.5;exitY=0;exitDx=0;exitDy=0;entryX=0.25;entryY=1;entryDx=0;entryDy=0;" parent="tH8uWHNspZ0iLHd8SQDv-1" source="rdD7uu43PLueD0Vt0H9s-17" target="rdD7uu43PLueD0Vt0H9s-16" edge="1">
                    <mxGeometry width="50" height="50" relative="1" as="geometry">
                        <mxPoint x="-146" y="390" as="sourcePoint"/>
                        <mxPoint x="-196" y="320" as="targetPoint"/>
                    </mxGeometry>
                </mxCell>
                <mxCell id="rdD7uu43PLueD0Vt0H9s-21" value="" style="shape=flexArrow;endArrow=classic;html=1;fontColor=#660000;" parent="tH8uWHNspZ0iLHd8SQDv-1" edge="1">
                    <mxGeometry width="50" height="50" relative="1" as="geometry">
                        <mxPoint x="-334" y="340" as="sourcePoint"/>
                        <mxPoint x="-294" y="340" as="targetPoint"/>
                    </mxGeometry>
                </mxCell>
                <mxCell id="rdD7uu43PLueD0Vt0H9s-24" value="" style="sketch=0;html=1;aspect=fixed;strokeColor=none;shadow=0;align=center;verticalAlign=top;fillColor=#2D9C5E;shape=mxgraph.gcp2.check;fontColor=#660000;" parent="tH8uWHNspZ0iLHd8SQDv-1" vertex="1">
                    <mxGeometry x="-614" y="425" width="25" height="20" as="geometry"/>
                </mxCell>
                <mxCell id="rdD7uu43PLueD0Vt0H9s-25" value="&lt;font color=&quot;#336600&quot;&gt;Pass&lt;/font&gt;" style="text;html=1;align=center;verticalAlign=middle;whiteSpace=wrap;rounded=0;fontStyle=0" parent="tH8uWHNspZ0iLHd8SQDv-1" vertex="1">
                    <mxGeometry x="-229.5" y="420" width="60" height="30" as="geometry"/>
                </mxCell>
                <mxCell id="rdD7uu43PLueD0Vt0H9s-26" value="" style="sketch=0;html=1;aspect=fixed;strokeColor=none;shadow=0;align=center;verticalAlign=top;fillColor=#2D9C5E;shape=mxgraph.gcp2.check;fontColor=#660000;" parent="tH8uWHNspZ0iLHd8SQDv-1" vertex="1">
                    <mxGeometry x="-239.5" y="425" width="25" height="20" as="geometry"/>
                </mxCell>
                <mxCell id="rdD7uu43PLueD0Vt0H9s-27" value="X" style="text;html=1;align=center;verticalAlign=middle;whiteSpace=wrap;rounded=0;fontColor=#660000;fontStyle=0;fontSize=22;" parent="tH8uWHNspZ0iLHd8SQDv-1" vertex="1">
                    <mxGeometry x="-463" y="420" width="60" height="30" as="geometry"/>
                </mxCell>
            </root>
        </mxGraphModel>
    </diagram>
</mxfile>